<?xml version="1.0"?>
<svg xmlns="http://www.w3.org/2000/svg" xmlns:xlink="http://www.w3.org/1999/xlink" width="56.5px" height="75.65px"><g transform="matrix(1, 0, 0, 1, 19.8, 61.3)"><use xlink:href="#object-0" width="30.1" height="54.95" transform="matrix(1, 0, 0, 1, 4.85, -56.6)"/><use xlink:href="#object-1" width="26.6" height="51.45" transform="matrix(1, 0, 0, 1, 6.6, -54.85)"/></g><defs><g transform="matrix(1, 0, 0, 1, -4.85, 56.6)" id="object-0"><path fill="none" stroke="#ffffff" stroke-opacity="0.15294117647059" stroke-width="4.5" stroke-linecap="round" stroke-linejoin="round" d="M7.1 -53.45L7.35 -50.2Q10 -49.3 11.95 -49.5L18.25 -51.7L23.05 -48.15L32.05 -51.25M16.3 -16.05L19.55 -16.55L23.6 -11.45L22.1 -8.6L24.7 -4.2L21.95 -8.45L23.7 -11.75L20.6 -15.45L17.2 -15.65L20.6 -15.45L23.7 -11.75L21.95 -8.45L24.7 -4.2L22.1 -8.6L23.6 -11.45L19.55 -16.55L16.3 -16.05L17.2 -15.65"/></g><g transform="matrix(1, 0, 0, 1, -6.6, 54.85)" id="object-1"><path fill="none" stroke="#ffffff" stroke-width="1" stroke-linecap="round" stroke-linejoin="round" d="M7.1 -53.45L7.35 -50.2Q10 -49.3 11.95 -49.5L18.25 -51.7L23.05 -48.15L32.05 -51.25M16.3 -16.05L19.55 -16.55L23.6 -11.45L22.1 -8.6L24.7 -4.2L21.95 -8.45L23.7 -11.75L20.6 -15.45L17.2 -15.65L20.6 -15.45L23.7 -11.75L21.95 -8.45L24.7 -4.2L22.1 -8.6L23.6 -11.45L19.55 -16.55L16.3 -16.05L17.2 -15.65"/></g></defs></svg>
