<?xml version="1.0"?>
<svg xmlns="http://www.w3.org/2000/svg" xmlns:xlink="http://www.w3.org/1999/xlink" width="56.5px" height="75.65px"><g transform="matrix(1, 0, 0, 1, 19.8, 61.3)"><use xlink:href="#object-0" width="19.55" height="45.85" transform="matrix(1, 0, 0, 1, 8.7, -59.4)"/><use xlink:href="#object-1" width="16.05" height="42.35" transform="matrix(1, 0, 0, 1, 10.45, -57.65)"/></g><defs><g transform="matrix(1, 0, 0, 1, -8.7, 59.4)" id="object-0"><path fill="none" stroke="#ffffff" stroke-opacity="0.15294117647059" stroke-width="4.5" stroke-linecap="round" stroke-linejoin="round" d="M10.95 -50.2L11.95 -49.4Q13.05 -49.7 14.05 -50.2L16.05 -52.35L17.8 -53.65L20.7 -56.75M17.65 -20.5L18.85 -20.4L20.8 -19.5L21.4 -19.1L22.95 -18.5L23.85 -18.95L24.6 -18.8L24.4 -18.05L24.05 -17.3L24.4 -18.05L24.6 -18.8L23.85 -18.95L22.95 -18.5L21.4 -19.1L20.8 -19.5L18.85 -20.4L17.65 -20.5L24.05 -17.3"/></g><g transform="matrix(1, 0, 0, 1, -10.45, 57.65)" id="object-1"><path fill="none" stroke="#ffffff" stroke-width="1" stroke-linecap="round" stroke-linejoin="round" d="M10.95 -50.2L11.95 -49.4Q13.05 -49.7 14.05 -50.2L16.05 -52.35L17.8 -53.65L20.7 -56.75M17.65 -20.5L18.85 -20.4L20.8 -19.5L21.4 -19.1L22.95 -18.5L23.85 -18.95L24.6 -18.8L24.4 -18.05L24.05 -17.3L24.4 -18.05L24.6 -18.8L23.85 -18.95L22.95 -18.5L21.4 -19.1L20.8 -19.5L18.85 -20.4L17.65 -20.5L24.05 -17.3"/></g></defs></svg>
