<?xml version="1.0"?>
<svg xmlns="http://www.w3.org/2000/svg" xmlns:xlink="http://www.w3.org/1999/xlink" width="56.5px" height="75.65px"><g transform="matrix(1, 0, 0, 1, 19.8, 61.3)"><use xlink:href="#object-0" width="5.95" height="9.8" transform="matrix(1, 0, 0, 1, 3.85, 1.1)"/><use xlink:href="#object-1" width="2.45" height="6.3" transform="matrix(1, 0, 0, 1, 5.6, 2.85)"/></g><defs><g transform="matrix(1, 0, 0, 1, -3.85, -1.1)" id="object-0"><path fill="none" stroke="#ffffff" stroke-opacity="0.15294117647059" stroke-width="4.5" stroke-linecap="round" stroke-linejoin="round" d="M6.35 3.35L7.5 7.85Q5.7 7.25 6.45 4.65Q5.7 7.25 7.5 7.85L6.35 3.35"/></g><g transform="matrix(1, 0, 0, 1, -5.6, -2.85)" id="object-1"><path fill="none" stroke="#ffffff" stroke-width="1" stroke-linecap="round" stroke-linejoin="round" d="M6.35 3.35L7.5 7.85Q5.7 7.25 6.45 4.65Q5.7 7.25 7.5 7.85L6.35 3.35"/></g></defs></svg>
