<?xml version="1.0"?>
<svg xmlns="http://www.w3.org/2000/svg" xmlns:xlink="http://www.w3.org/1999/xlink" width="122.45px" height="178.75px"><g transform="matrix(1, 0, 0, 1, 61.25, 89.35)"><use xlink:href="#object-0" width="122.45" height="178.75" transform="matrix(1, 0, 0, 1, -61.25, -89.35)"/></g><defs><g transform="matrix(1, 0, 0, 1, 61.25, 89.35)" id="object-0"><path fill-rule="evenodd" fill="#faa844" stroke="none" d="M44.15 -86.65L45.9 -84.65L40.4 -82.2L39.6 -78L34.7 -72.95L34.7 -46.45L41.65 -19.5Q38.05 -15 39.15 -7.35L43.1 -2.55L39.3 0.8L39.25 0.8L34.7 -6.7L24.4 -8.2L24.4 -8.25L24.35 -8.2L-8.15 -12.8Q-34.4 -9.95 -39.95 -5.85L-38.45 4L-47.65 -3.6L-47.3 -4.65L-46.7 -6.65L-45.65 -9.7Q-42.6 -18.1 -38 -26.1L-36.1 -29.3L-33.8 -32.9L-31.7 -35.95L-32.45 -37.15L-32.5 -37.2L-34 -39.55L-29.4 -45.2L-30.15 -46.75L-31.35 -49.7L-31.4 -49.9L-31.4 -50.1L-31.55 -50.15L-32.5 -53.3Q-33.3 -56.2 -33.6 -59.1Q-34.15 -64.15 -33.15 -69.2Q-30.1 -76.95 -12.45 -80.55L-12.35 -80.45L-12.45 -80.4L-14 -78.7L-14.05 -77.95L-13.7 -77.55L-12.4 -77.3L-12.35 -77.3L-11.15 -77.45L-8.55 -78.05L-5.35 -79.3Q-3.05 -80.35 -1.3 -81.5L2.5 -79.8L16.45 -85.3L26.6 -88.2Q24.95 -87.3 23.75 -86.3L23.55 -86.15Q22.5 -85.3 22.2 -84.65Q21.95 -84.2 22.1 -83.85L22.5 -83.5L22.95 -83.3L23.85 -83.25L24 -82.95L24.05 -82.85L24.05 -82.95L24.7 -83.3L24.85 -83.35L24.9 -83.35L25 -83.35Q27.55 -83.8 30.8 -85.2L34.85 -87.4L36 -88.25L37.15 -89.35L44.15 -86.65M5.15 -71.2L5.25 -70.95L4.5 -70.7L6.7 -64.5L6.05 -71.25L5.65 -71.1L5.15 -71.2M52.55 15.4L61.2 44.95L60.8 58.2Q50.45 57.6 38.45 55.1L32.9 53.9Q10.25 48.65 -17.95 37.25L-35.5 29.8L-35.5 29.7L-35.7 29.3L-34.95 25.3L-34.2 23.95L-32.05 23.3L-29.9 22.5L-24.75 20.7L-21.25 19.6Q-8.8 15.7 6.15 12.75L18.05 10.65L28.2 11.05L34.75 12.25L34.8 12.25L47.3 14.5L47.45 14.5L52.55 15.4M-10.9 -76.2L-10.65 -76.4L-10.95 -76.4L-10.9 -76.2M-40.65 60.75L-34.4 64.95Q-10.85 80.35 15 89.4L-61.25 89.4L-57.8 77.35L-48.65 56.95L-48.65 54.9L-44.9 57.7L-40.65 60.75"/></g></defs></svg>
